<?xml version="1.0" standalone="no"?>
<!DOCTYPE svg PUBLIC "-//W3C//DTD SVG 20010904//EN"
 "http://www.w3.org/TR/2001/REC-SVG-20010904/DTD/svg10.dtd">
<svg version="1.0" xmlns="http://www.w3.org/2000/svg"
 width="1024.000000pt" height="1024.000000pt" viewBox="0 0 1024.000000 1024.000000"
 preserveAspectRatio="xMidYMid meet">
<metadata>
Created by potrace 1.16, written by Peter Selinger 2001-2019
</metadata>
<g transform="translate(0.000000,1024.000000) scale(0.100000,-0.100000)"
fill="#000000" stroke="none">
<path d="M2363 9586 c-23 -8 -57 -23 -76 -35 -47 -29 -131 -119 -156 -169 -54
-105 -51 11 -51 -2232 0 -2270 -4 -2131 57 -2242 54 -99 183 -192 303 -217 41
-9 555 -11 2075 -9 l2020 3 58 23 c74 30 164 114 204 189 68 127 63 -8 63
1854 0 1180 -3 1703 -11 1739 -6 28 -23 65 -37 82 -30 36 -94 67 -136 68 -29
0 -29 0 28 60 108 113 164 285 153 465 -14 207 -89 334 -241 406 -59 28 -67
29 -201 28 l-140 0 -325 -466 c-179 -256 -331 -472 -338 -479 -11 -11 -70 -14
-287 -14 -175 0 -276 4 -280 10 -4 6 29 61 72 123 363 517 559 793 565 795 5
2 8 10 8 18 0 12 -58 14 -377 14 l-378 -1 -71 -102 c-210 -305 -570 -815 -587
-835 -21 -22 -21 -22 -301 -20 -214 2 -281 6 -281 15 0 11 523 762 613 880 17
24 32 48 32 53 0 7 -126 9 -367 8 l-367 -3 -50 -70 c-27 -38 -173 -245 -323
-460 -151 -214 -280 -398 -288 -407 -13 -16 -41 -18 -299 -18 -172 0 -287 4
-291 10 -5 7 320 478 596 863 27 37 49 72 49 77 0 16 -585 12 -637 -4z m573
-1515 c58 -27 88 -72 89 -137 1 -119 -122 -191 -227 -132 -135 76 -79 282 77
287 11 0 38 -8 61 -18z m3218 -10 c42 -24 68 -63 73 -113 10 -86 -46 -156
-133 -166 -118 -13 -204 103 -156 211 38 87 132 116 216 68z m-1524 -346 c437
-66 770 -398 840 -837 18 -109 9 -302 -19 -408 -43 -162 -125 -311 -238 -430
-92 -99 -179 -162 -298 -221 -165 -80 -229 -94 -435 -94 -152 0 -186 3 -260
23 -182 50 -327 136 -465 277 -321 326 -377 826 -139 1227 67 113 221 266 333
332 208 122 444 167 681 131z m-1667 -2080 c31 -23 67 -90 67 -127 0 -41 -42
-109 -80 -129 -135 -73 -282 68 -211 201 30 57 76 82 141 78 34 -2 66 -12 83
-23z m3204 -3 c43 -31 66 -85 60 -140 -17 -153 -227 -186 -289 -45 -33 75 -8
148 66 195 41 25 120 20 163 -10z"/>
<path d="M7890 8094 c-355 -239 -651 -442 -657 -451 -10 -13 -13 -213 -13
-919 l0 -901 22 -28 c12 -15 310 -219 662 -453 679 -450 679 -450 718 -401 17
20 18 117 18 1785 0 1751 0 1764 -20 1784 -46 46 -45 46 -730 -416z"/>
<path d="M2760 3966 c-167 -46 -275 -159 -315 -327 -22 -94 -22 -1034 0 -1128
41 -174 165 -297 334 -332 33 -7 107 -9 180 -7 146 6 210 25 290 88 101 80
150 171 170 314 16 110 15 528 -1 544 -17 17 -459 17 -476 0 -17 -17 -16 -232
1 -246 7 -6 51 -12 97 -14 l85 -3 -1 -130 c-1 -137 -14 -184 -61 -227 -51 -46
-144 -61 -210 -33 -50 21 -72 42 -94 90 -17 37 -19 75 -19 505 0 294 4 479 11
503 47 169 287 187 352 27 8 -19 18 -64 22 -100 3 -36 11 -70 17 -77 17 -20
261 -18 278 2 17 20 6 180 -16 256 -45 152 -150 255 -299 294 -72 18 -279 19
-345 1z"/>
<path d="M7523 3965 c-146 -40 -249 -140 -305 -295 -22 -64 -23 -73 -26 -547
-4 -528 1 -598 52 -706 15 -30 47 -79 73 -107 90 -101 198 -140 383 -140 175
0 267 30 365 121 47 43 99 134 123 213 24 77 30 998 8 1105 -39 187 -151 311
-321 356 -75 19 -280 19 -352 0z m264 -284 c54 -25 91 -81 103 -157 13 -79 13
-878 0 -925 -16 -57 -51 -102 -100 -126 -110 -56 -248 1 -280 115 -6 23 -10
207 -10 483 0 364 3 454 15 495 33 112 160 166 272 115z"/>
<path d="M862 3948 c-19 -19 -17 -1731 2 -1747 9 -8 121 -10 392 -9 l379 3 3
124 c2 79 -1 128 -8 135 -7 7 -94 13 -233 16 l-222 5 -3 729 c-1 518 -5 733
-13 743 -15 18 -279 19 -297 1z"/>
<path d="M1861 3947 c-8 -11 -10 -240 -9 -883 l3 -869 150 0 150 0 0 880 0
880 -141 3 c-111 2 -144 0 -153 -11z"/>
<path d="M3685 3948 c-3 -7 -4 -404 -3 -883 l3 -870 139 -3 c93 -2 143 1 152
9 11 9 14 75 14 360 l0 349 190 0 190 0 0 -348 c0 -257 3 -351 12 -360 17 -17
279 -17 296 0 16 16 17 1709 2 1739 -10 17 -22 19 -148 19 -94 0 -142 -4 -150
-12 -9 -9 -12 -106 -12 -375 l0 -363 -190 0 -190 0 0 363 c0 269 -3 366 -12
375 -17 17 -287 17 -293 0z"/>
<path d="M4880 3941 c-5 -11 -10 -66 -10 -123 0 -152 -5 -148 181 -148 l149 0
2 -737 3 -738 142 -3 c133 -2 143 -1 153 17 7 14 9 246 8 741 l-3 720 147 0
c183 0 178 -4 178 148 0 57 -5 112 -10 123 -10 18 -26 19 -470 19 -444 0 -460
-1 -470 -19z"/>
<path d="M6010 3941 c-16 -31 -14 -1712 3 -1735 12 -16 34 -17 307 -14 335 5
379 13 475 86 103 78 156 178 177 333 28 209 -43 380 -187 455 -30 16 -55 31
-55 34 1 3 20 17 45 32 53 32 97 90 126 167 27 70 37 230 19 314 -17 83 -73
188 -126 237 -99 91 -186 110 -521 110 -239 0 -253 -1 -263 -19z m516 -258
c94 -54 134 -245 75 -361 -41 -81 -88 -103 -224 -106 l-72 -1 -3 235 c-1 129
-1 239 2 245 5 14 195 3 222 -12z m-25 -734 c109 -23 164 -111 164 -259 -1
-106 -27 -168 -87 -208 -35 -23 -53 -27 -155 -31 -63 -4 -117 -4 -119 -2 -2 2
-4 118 -4 258 l0 253 75 0 c40 0 97 -5 126 -11z"/>
<path d="M8367 3953 c-4 -3 -7 -12 -7 -19 0 -7 77 -198 171 -424 94 -226 169
-419 166 -428 -2 -9 -86 -207 -187 -439 -101 -235 -180 -429 -176 -438 4 -12
29 -15 145 -15 135 0 141 1 155 23 7 12 64 145 127 295 78 190 115 269 121
258 5 -8 58 -135 119 -283 61 -147 115 -274 121 -281 8 -9 47 -12 157 -10 126
3 146 5 149 19 2 10 -80 212 -182 451 l-185 435 65 154 c201 474 275 660 272
681 -3 23 -6 23 -133 26 -94 2 -135 -1 -147 -10 -9 -7 -62 -132 -118 -278 -56
-146 -105 -269 -109 -273 -4 -4 -52 113 -107 260 -54 147 -107 276 -116 285
-16 16 -37 18 -156 18 -76 0 -142 -3 -145 -7z"/>
</g>
</svg>
